<svg xmlns="http://www.w3.org/2000/svg" viewBox="0 0 839.35 456.73"><defs><style>.ad8fa5e0-7581-4b4a-84ca-5e6e58e023c9{fill:#e6e709;}.b1535753-de90-46c5-bf4e-bcc7ef2645cb{fill:#5b594a;}.b381dacc-12a8-4eed-96ce-f34bf7a4071b{fill:#1a1918;}.a0f8ba75-9f2f-4533-ba9b-f60450c81f8c{fill:#212121;}.a0f8ba75-9f2f-4533-ba9b-f60450c81f8c,.ee457075-27dc-41cd-b1b7-254597e16649{stroke:#fff;stroke-miterlimit:10;stroke-width:0.25px;}.ee457075-27dc-41cd-b1b7-254597e16649{fill:#282828;}</style></defs><g id="be67c678-bab5-4861-a220-cf7ce2d44474" data-name="Etoiles"><g id="abb59c9e-073f-410b-8c41-fc3105ed037d" data-name="E12"><path class="ad8fa5e0-7581-4b4a-84ca-5e6e58e023c9" d="M622,330.15c-1-3.11.84-6,.66-9,.09-2.72-2.15-3.05-3.94-3.83s-4-1.08-4.42-3.54c2.36.16,4.59-.8,6.87-.9,2.55-.12,3.25-1.23,3.36-3.54s.62-4.62,1-6.93c2.42.25,2.8,2.33,3.51,4.05s1.16,3.37,2.94,4.23l8.58-.84a2.45,2.45,0,0,1-.88,2.39c-4.91,4-5.19,8.36-1.39,13.22.09.11-.16.48-.28.79-3.18.72-5.06-3.75-8.45-2.2C626.2,325.07,625.32,329.09,622,330.15Z" transform="translate(-21.08 -14.33)"/><path class="b1535753-de90-46c5-bf4e-bcc7ef2645cb" d="M629.51,324c3.39-1.55,5.27,2.92,8.45,2.2.12-.31.37-.68.28-.79-3.8-4.86-3.52-9.24,1.39-13.22a2.45,2.45,0,0,0,.88-2.39c1.13-1.37,2.62-2.48,4.1-1,1.64,1.66-.19,2.92-1.23,4.05s-2,1.77-3,2.68c-2.12,2-2.56,4.22-1.07,6.77.38.63.79,1.25,1.14,1.9,1,1.9,3.19,4.11,1.37,6s-4.05-.47-5.91-1.39c-2.27-1.12-4.36-2.63-7-1.28C628.57,326.25,631.85,325.59,629.51,324Z" transform="translate(-21.08 -14.33)"/><path class="b381dacc-12a8-4eed-96ce-f34bf7a4071b" d="M629.51,324c2.34,1.59-.94,2.25-.59,3.52-1.64,1.85-3,4-5.2,5.27-1.05.61-2.41,1.1-3.18,0-1-1.38.58-1.95,1.46-2.63C625.32,329.09,626.2,325.07,629.51,324Z" transform="translate(-21.08 -14.33)"/><path class="b1535753-de90-46c5-bf4e-bcc7ef2645cb" d="M614.3,313.73c.45,2.46,2.63,2.75,4.42,3.54s4,1.11,3.94,3.83c-3.73-.74-7.37-1.74-10.24-4.41-.68-.63-1.74-1.51-1.15-2.59C612,312.79,613.2,313.17,614.3,313.73Z" transform="translate(-21.08 -14.33)"/><path class="b1535753-de90-46c5-bf4e-bcc7ef2645cb" d="M631.93,310.64c-1.78-.86-2.27-2.59-2.94-4.23s-1.09-3.8-3.51-4.05c-.19-2.56.85-3.4,2.48-1.19C630,303.94,632.2,306.82,631.93,310.64Z" transform="translate(-21.08 -14.33)"/></g><g id="a5856a47-6799-4edb-9755-789005485fda" data-name="E11"><path class="ad8fa5e0-7581-4b4a-84ca-5e6e58e023c9" d="M659.94,321.73c-1.06-3.1.79-6,.6-9.06.07-2.71-2.17-3-4-3.8s-4-1.06-4.45-3.52c2.36.16,4.59-.82,6.87-.94,2.55-.13,3.24-1.25,3.34-3.55s.58-4.63.9-6.95c2.43.24,2.82,2.32,3.53,4s1.19,3.37,3,4.22l8.57-.9a2.41,2.41,0,0,1-.86,2.4c-4.88,4-5.13,8.39-1.3,13.23.08.1-.16.48-.28.79-3.18.74-5.08-3.72-8.47-2.15C664.11,316.62,663.25,320.65,659.94,321.73Z" transform="translate(-21.08 -14.33)"/><path class="b1535753-de90-46c5-bf4e-bcc7ef2645cb" d="M667.4,315.53c3.39-1.57,5.29,2.89,8.47,2.15.12-.31.36-.69.28-.79-3.83-4.84-3.58-9.23,1.3-13.23a2.41,2.41,0,0,0,.86-2.4c1.13-1.37,2.61-2.49,4.1-1,1.66,1.65-.17,2.92-1.2,4.06-.89,1-2,1.78-3,2.69-2.11,2-2.53,4.24-1,6.78.38.63.8,1.24,1.15,1.89,1,1.9,3.22,4.09,1.4,6s-4-.45-5.92-1.36c-2.27-1.11-4.37-2.6-7-1.24C666.48,317.79,669.76,317.11,667.4,315.53Z" transform="translate(-21.08 -14.33)"/><path class="b381dacc-12a8-4eed-96ce-f34bf7a4071b" d="M667.4,315.53c2.36,1.58-.92,2.26-.56,3.52-1.63,1.86-3,4-5.17,5.31-1,.61-2.4,1.12-3.17,0-1-1.38.56-1.95,1.44-2.64C663.25,320.65,664.11,316.62,667.4,315.53Z" transform="translate(-21.08 -14.33)"/><path class="b1535753-de90-46c5-bf4e-bcc7ef2645cb" d="M652.13,305.35c.46,2.46,2.65,2.74,4.45,3.52s4,1.09,4,3.8c-3.74-.71-7.38-1.69-10.27-4.34-.69-.63-1.75-1.5-1.17-2.59C649.8,304.43,651,304.8,652.13,305.35Z" transform="translate(-21.08 -14.33)"/><path class="b1535753-de90-46c5-bf4e-bcc7ef2645cb" d="M669.74,302.16c-1.78-.85-2.28-2.58-3-4.22s-1.1-3.79-3.53-4c-.21-2.55.83-3.4,2.47-1.2C667.78,295.46,670,298.34,669.74,302.16Z" transform="translate(-21.08 -14.33)"/></g><g id="f05f5602-8425-4eed-9226-d87683c2ab85" data-name="E10"><path class="ad8fa5e0-7581-4b4a-84ca-5e6e58e023c9" d="M688.62,295.54c-1.09-3.1.74-6,.52-9.07,0-2.71-2.2-3-4-3.76s-4-1-4.47-3.47c2.36.13,4.57-.87,6.85-1,2.55-.16,3.23-1.28,3.31-3.59s.54-4.63.83-6.95c2.43.22,2.84,2.29,3.57,4s1.22,3.36,3,4.19l8.57-1a2.45,2.45,0,0,1-.84,2.41c-4.85,4.05-5.05,8.43-1.18,13.23.09.11-.16.49-.27.8-3.17.77-5.12-3.67-8.48-2.07C692.74,290.39,691.92,294.43,688.62,295.54Z" transform="translate(-21.08 -14.33)"/><path class="b1535753-de90-46c5-bf4e-bcc7ef2645cb" d="M696,289.26c3.36-1.6,5.31,2.84,8.48,2.07.11-.31.36-.69.27-.8-3.87-4.8-3.67-9.18,1.18-13.23a2.45,2.45,0,0,0,.84-2.41c1.11-1.38,2.58-2.52,4.09-1s-.15,2.92-1.17,4.07c-.88,1-2,1.8-2.92,2.72-2.09,2-2.49,4.26-1,6.79.39.63.81,1.24,1.17,1.88,1,1.88,3.26,4.06,1.46,5.94s-4.05-.4-5.93-1.3c-2.28-1.08-4.39-2.56-7-1.17C695.12,291.53,698.39,290.82,696,289.26Z" transform="translate(-21.08 -14.33)"/><path class="b381dacc-12a8-4eed-96ce-f34bf7a4071b" d="M696,289.26c2.36,1.56-.91,2.27-.53,3.53-1.62,1.88-2.94,4-5.13,5.36-1,.62-2.38,1.14-3.17,0-1-1.37.55-2,1.42-2.65C691.92,294.43,692.74,290.39,696,289.26Z" transform="translate(-21.08 -14.33)"/><path class="b1535753-de90-46c5-bf4e-bcc7ef2645cb" d="M680.66,279.24c.48,2.45,2.67,2.71,4.47,3.47s4,1.05,4,3.76c-3.75-.67-7.4-1.62-10.32-4.24-.69-.62-1.76-1.48-1.19-2.57C678.31,278.34,679.54,278.69,680.66,279.24Z" transform="translate(-21.08 -14.33)"/><path class="b1535753-de90-46c5-bf4e-bcc7ef2645cb" d="M698.23,275.87c-1.79-.83-2.3-2.55-3-4.19s-1.14-3.77-3.57-4c-.23-2.56.8-3.41,2.46-1.23C696.2,269.2,698.45,272,698.23,275.87Z" transform="translate(-21.08 -14.33)"/></g><g id="a65e1553-5431-404d-bd6f-6f4a5b33090b" data-name="E9"><path class="ad8fa5e0-7581-4b4a-84ca-5e6e58e023c9" d="M701,258.84c-1.26-3,.39-6,0-9.08-.11-2.71-2.37-2.87-4.21-3.53s-4-.79-4.67-3.21c2.37,0,4.52-1.13,6.79-1.4,2.54-.29,3.15-1.46,3.1-3.76s.27-4.66.43-7c2.44.08,3,2.12,3.8,3.78s1.4,3.28,3.24,4L718,237.2a2.41,2.41,0,0,1-.7,2.45c-4.6,4.32-4.56,8.71-.42,13.28.09.1-.13.49-.22.81-3.12.95-5.32-3.37-8.59-1.58C704.82,253.47,704.23,257.55,701,258.84Z" transform="translate(-21.08 -14.33)"/><path class="b1535753-de90-46c5-bf4e-bcc7ef2645cb" d="M708,252.16c3.27-1.79,5.47,2.53,8.59,1.58.09-.32.31-.71.22-.81-4.14-4.57-4.18-9,.42-13.28a2.41,2.41,0,0,0,.7-2.45c1-1.45,2.44-2.66,4-1.27,1.76,1.54,0,2.93-.93,4.14-.82,1-1.86,1.9-2.76,2.88-2,2.12-2.25,4.4-.57,6.83.42.61.88,1.19,1.27,1.81,1.16,1.82,3.48,3.87,1.8,5.85s-4.08-.17-6-1c-2.34-1-4.53-2.31-7.1-.77C707.26,254.48,710.49,253.58,708,252.16Z" transform="translate(-21.08 -14.33)"/><path class="b381dacc-12a8-4eed-96ce-f34bf7a4071b" d="M708,252.16c2.45,1.42-.78,2.32-.33,3.55-1.51,2-2.71,4.2-4.81,5.64-1,.68-2.32,1.27-3.16.22-1.06-1.31.43-2,1.26-2.73C704.23,257.55,704.82,253.47,708,252.16Z" transform="translate(-21.08 -14.33)"/><path class="b1535753-de90-46c5-bf4e-bcc7ef2645cb" d="M692.12,243c.63,2.42,2.83,2.56,4.67,3.21s4.1.82,4.21,3.53c-3.78-.46-7.48-1.2-10.54-3.65-.72-.58-1.84-1.38-1.34-2.5C689.73,242.26,691,242.54,692.12,243Z" transform="translate(-21.08 -14.33)"/><path class="b1535753-de90-46c5-bf4e-bcc7ef2645cb" d="M709.48,238.66c-1.84-.73-2.45-2.42-3.24-4s-1.36-3.7-3.8-3.78c-.37-2.54.6-3.45,2.39-1.37C707.07,232.11,709.48,234.83,709.48,238.66Z" transform="translate(-21.08 -14.33)"/></g><g id="f3e48bc9-4a13-4535-9141-a381498e2fc4" data-name="E8"><path class="ad8fa5e0-7581-4b4a-84ca-5e6e58e023c9" d="M691.05,220.34c-.92-3.14,1.05-6,1-9,.18-2.71-2-3.12-3.81-4s-3.93-1.23-4.28-3.71c2.35.26,4.61-.62,6.9-.64,2.55,0,3.29-1.11,3.49-3.41s.78-4.6,1.19-6.9c2.42.35,2.72,2.44,3.36,4.18s1,3.41,2.78,4.34l8.61-.53a2.43,2.43,0,0,1-1,2.36c-5.05,3.79-5.49,8.16-1.87,13.16.08.11-.19.47-.32.78-3.2.61-4.91-3.93-8.36-2.51C695.44,215.42,694.41,219.41,691.05,220.34Z" transform="translate(-21.08 -14.33)"/><path class="b1535753-de90-46c5-bf4e-bcc7ef2645cb" d="M698.78,214.47c3.45-1.42,5.16,3.12,8.36,2.51.13-.31.4-.67.32-.78-3.62-5-3.18-9.37,1.87-13.16a2.43,2.43,0,0,0,1-2.36c1.19-1.32,2.71-2.37,4.14-.82,1.58,1.73-.3,2.92-1.38,4-.93.94-2,1.7-3.06,2.56-2.19,1.89-2.71,4.13-1.31,6.73.35.65.74,1.28,1.07,1.94,1,1.94,3,4.23,1.14,6s-4-.61-5.85-1.61c-2.22-1.2-4.26-2.79-7-1.53C697.75,216.69,701.06,216.15,698.78,214.47Z" transform="translate(-21.08 -14.33)"/><path class="b381dacc-12a8-4eed-96ce-f34bf7a4071b" d="M698.78,214.47c2.28,1.68-1,2.22-.72,3.5-1.71,1.78-3.15,3.87-5.39,5.07-1.07.57-2.45,1-3.17-.12-.91-1.42.65-1.93,1.55-2.58C694.41,219.41,695.44,215.42,698.78,214.47Z" transform="translate(-21.08 -14.33)"/><path class="b1535753-de90-46c5-bf4e-bcc7ef2645cb" d="M684,203.64c.35,2.48,2.52,2.86,4.28,3.71s4,1.26,3.81,4c-3.71-.87-7.31-2-10.08-4.78-.66-.66-1.68-1.57-1.06-2.64C681.66,202.63,682.88,203.05,684,203.64Z" transform="translate(-21.08 -14.33)"/><path class="b1535753-de90-46c5-bf4e-bcc7ef2645cb" d="M701.68,201.21c-1.74-.93-2.16-2.67-2.78-4.34s-.94-3.83-3.36-4.18c-.09-2.56,1-3.36,2.53-1.09C700,194.44,702.1,197.4,701.68,201.21Z" transform="translate(-21.08 -14.33)"/></g><g id="bdf823c6-0c61-4080-8130-af91822fa8fb" data-name="E7"><path class="ad8fa5e0-7581-4b4a-84ca-5e6e58e023c9" d="M666.13,192.38c-1.22-3,.46-6,.11-9.07-.09-2.72-2.34-2.91-4.18-3.58s-4-.83-4.63-3.27c2.37,0,4.53-1.07,6.8-1.32,2.55-.27,3.17-1.42,3.14-3.73s.33-4.66.52-7c2.43.1,2.94,2.16,3.75,3.82s1.37,3.3,3.19,4.05l8.52-1.37a2.44,2.44,0,0,1-.73,2.44c-4.65,4.27-4.66,8.66-.57,13.28.09.1-.14.49-.23.81-3.13.91-5.28-3.43-8.58-1.68C670,187.05,669.38,191.12,666.13,192.38Z" transform="translate(-21.08 -14.33)"/><path class="b1535753-de90-46c5-bf4e-bcc7ef2645cb" d="M673.24,185.78c3.3-1.75,5.45,2.59,8.58,1.68.09-.32.32-.71.23-.81-4.09-4.62-4.08-9,.57-13.28a2.44,2.44,0,0,0,.73-2.44c1-1.44,2.46-2.63,4-1.22,1.75,1.56,0,2.92-1,4.12-.83,1-1.88,1.89-2.79,2.85-2,2.1-2.3,4.37-.65,6.82.41.62.87,1.2,1.26,1.83,1.13,1.84,3.43,3.91,1.72,5.87s-4.07-.22-6-1c-2.33-1-4.51-2.35-7.09-.84C672.44,188.09,675.68,187.23,673.24,185.78Z" transform="translate(-21.08 -14.33)"/><path class="b381dacc-12a8-4eed-96ce-f34bf7a4071b" d="M673.24,185.78c2.44,1.45-.8,2.31-.36,3.55-1.53,1.95-2.75,4.16-4.87,5.58-1,.67-2.34,1.25-3.17.19-1-1.32.46-2,1.29-2.72C669.38,191.12,670,187.05,673.24,185.78Z" transform="translate(-21.08 -14.33)"/><path class="b1535753-de90-46c5-bf4e-bcc7ef2645cb" d="M657.43,176.46c.6,2.44,2.8,2.59,4.63,3.27s4.09.86,4.18,3.58c-3.78-.51-7.47-1.29-10.51-3.77-.71-.59-1.82-1.4-1.3-2.52C655.05,175.68,656.3,176,657.43,176.46Z" transform="translate(-21.08 -14.33)"/><path class="b1535753-de90-46c5-bf4e-bcc7ef2645cb" d="M674.83,172.3c-1.82-.75-2.41-2.45-3.19-4.05s-1.32-3.72-3.75-3.82c-.35-2.54.64-3.45,2.4-1.34C672.5,165.72,674.88,168.47,674.83,172.3Z" transform="translate(-21.08 -14.33)"/></g><g id="be4c4463-780d-4582-b104-ac5e775d5d1e" data-name="E6"><path class="ad8fa5e0-7581-4b4a-84ca-5e6e58e023c9" d="M628.29,180.43c-1-3.11.83-6,.66-9.05.08-2.72-2.16-3-4-3.83s-4-1.07-4.42-3.54c2.36.17,4.58-.8,6.86-.9,2.56-.12,3.25-1.23,3.37-3.54s.61-4.62.93-6.93c2.43.25,2.81,2.33,3.52,4s1.16,3.37,2.94,4.24l8.58-.85a2.44,2.44,0,0,1-.87,2.39c-4.91,4-5.19,8.36-1.38,13.22.08.11-.17.48-.29.79-3.18.73-5.06-3.74-8.45-2.2C632.49,175.35,631.61,179.37,628.29,180.43Z" transform="translate(-21.08 -14.33)"/><path class="b1535753-de90-46c5-bf4e-bcc7ef2645cb" d="M635.79,174.27c3.39-1.54,5.27,2.93,8.45,2.2.12-.31.37-.68.29-.79-3.81-4.86-3.53-9.24,1.38-13.22a2.44,2.44,0,0,0,.87-2.39c1.13-1.37,2.62-2.48,4.1-1,1.65,1.66-.19,2.92-1.22,4.05-.89,1-2,1.77-3,2.68-2.12,2-2.56,4.22-1.06,6.77.37.63.79,1.25,1.14,1.9,1,1.9,3.19,4.11,1.37,6s-4-.47-5.92-1.39c-2.26-1.12-4.35-2.63-7-1.27C634.85,176.53,638.13,175.87,635.79,174.27Z" transform="translate(-21.08 -14.33)"/><path class="b381dacc-12a8-4eed-96ce-f34bf7a4071b" d="M635.79,174.27c2.34,1.6-.94,2.26-.58,3.53-1.65,1.85-3,4-5.21,5.27-1,.61-2.4,1.11-3.17,0-1-1.39.58-2,1.46-2.64C631.61,179.37,632.49,175.35,635.79,174.27Z" transform="translate(-21.08 -14.33)"/><path class="b1535753-de90-46c5-bf4e-bcc7ef2645cb" d="M620.58,164c.44,2.47,2.63,2.76,4.42,3.54s4,1.11,4,3.83c-3.74-.73-7.38-1.74-10.26-4.4-.68-.63-1.73-1.51-1.15-2.59C618.24,163.08,619.47,163.45,620.58,164Z" transform="translate(-21.08 -14.33)"/><path class="b1535753-de90-46c5-bf4e-bcc7ef2645cb" d="M638.2,160.92c-1.78-.87-2.27-2.59-2.94-4.24s-1.09-3.79-3.52-4c-.19-2.56.85-3.4,2.49-1.2C636.27,154.21,638.47,157.09,638.2,160.92Z" transform="translate(-21.08 -14.33)"/></g><g id="a78f1bad-b684-42f1-a566-b761f851d0cc" data-name="E5"><path class="ad8fa5e0-7581-4b4a-84ca-5e6e58e023c9" d="M608.28,184.55c-3.27.29-5.65-2.21-8.65-2.75-2.62-.71-3.46,1.39-4.65,2.95s-2,3.61-4.47,3.47c.71-2.25.29-4.65.73-6.89.48-2.51-.44-3.45-2.66-4.09s-4.35-1.67-6.53-2.53c.82-2.3,2.93-2.19,4.76-2.47s3.55-.35,4.8-1.88c.39-2.84.79-5.69,1.18-8.54a2.43,2.43,0,0,1,2.12,1.41c2.73,5.7,6.92,7,12.53,4.42.13-.05.43.28.71.47,0,3.26-4.82,4-4.11,7.7C604.31,179.28,608,181.08,608.28,184.55Z" transform="translate(-21.08 -14.33)"/><path class="b1535753-de90-46c5-bf4e-bcc7ef2645cb" d="M604,175.82c-.71-3.66,4.07-4.44,4.11-7.7-.28-.19-.58-.52-.71-.47-5.61,2.57-9.8,1.28-12.53-4.42a2.43,2.43,0,0,0-2.12-1.41c-1.06-1.42-1.8-3.12,0-4.22,2-1.21,2.8.87,3.66,2.14.74,1.1,1.26,2.34,1.91,3.5,1.42,2.53,3.51,3.48,6.34,2.62.7-.22,1.4-.48,2.11-.67,2.09-.55,4.74-2.14,6.12.06s-1.4,3.83-2.73,5.43c-1.62,1.94-3.57,3.62-2.88,6.53C606,177.26,606.14,173.91,604,175.82Z" transform="translate(-21.08 -14.33)"/><path class="b381dacc-12a8-4eed-96ce-f34bf7a4071b" d="M604,175.82c2.1-1.91,2,1.44,3.29,1.39,1.41,2,3.18,3.85,3.91,6.29.35,1.15.52,2.6-.74,3.08-1.57.61-1.77-1-2.22-2C608,181.08,604.31,179.28,604,175.82Z" transform="translate(-21.08 -14.33)"/><path class="b1535753-de90-46c5-bf4e-bcc7ef2645cb" d="M590.51,188.22c2.5.14,3.3-1.91,4.47-3.47s2-3.66,4.65-2.95c-1.59,3.46-3.41,6.77-6.68,8.94-.77.52-1.87,1.34-2.78.52C589.06,190.27,589.71,189.17,590.51,188.22Z" transform="translate(-21.08 -14.33)"/><path class="b1535753-de90-46c5-bf4e-bcc7ef2645cb" d="M591.61,170.36c-1.25,1.53-3,1.6-4.8,1.88s-3.94.17-4.76,2.47c-2.53-.41-3.1-1.62-.58-2.69C584.64,170.67,588,169.2,591.61,170.36Z" transform="translate(-21.08 -14.33)"/></g><g id="b5c0dcd4-28be-45d8-9ddc-82d476d6e0f5" data-name="E4"><path class="ad8fa5e0-7581-4b4a-84ca-5e6e58e023c9" d="M578.26,212.42c-3.27-.2-5.26-3-8.15-4-2.49-1.09-3.63.86-5,2.23s-2.48,3.29-4.94,2.78c1-2.13,1-4.56,1.73-6.71.85-2.41.08-3.47-2-4.44s-4.06-2.29-6.08-3.46c1.14-2.16,3.21-1.73,5.06-1.75s3.56.18,5-1.14q1.2-4.14,2.42-8.28a2.44,2.44,0,0,1,1.89,1.71c1.86,6,5.82,7.92,11.75,6.21.13,0,.38.33.62.56-.51,3.22-5.36,3.3-5.19,7C575.11,206.63,578.51,209,578.26,212.42Z" transform="translate(-21.08 -14.33)"/><path class="b1535753-de90-46c5-bf4e-bcc7ef2645cb" d="M575.35,203.16c-.17-3.72,4.68-3.8,5.19-7-.24-.23-.49-.6-.62-.56-5.93,1.71-9.89-.18-11.75-6.21a2.44,2.44,0,0,0-1.89-1.71c-.85-1.56-1.32-3.35.63-4.17,2.16-.9,2.64,1.27,3.3,2.65.58,1.2.9,2.5,1.38,3.75,1,2.7,3,4,5.88,3.51.73-.11,1.46-.26,2.19-.35,2.15-.23,5-1.42,6.05,1s-2,3.58-3.5,5c-1.89,1.68-4.07,3.05-3.81,6C577.09,204.88,577.7,201.58,575.35,203.16Z" transform="translate(-21.08 -14.33)"/><path class="b381dacc-12a8-4eed-96ce-f34bf7a4071b" d="M575.35,203.16c2.35-1.58,1.74,1.72,3,1.86,1.1,2.21,2.58,4.27,3,6.79.17,1.2.12,2.65-1.19,2.95-1.65.37-1.6-1.27-1.9-2.34C578.51,209,575.11,206.63,575.35,203.16Z" transform="translate(-21.08 -14.33)"/><path class="b1535753-de90-46c5-bf4e-bcc7ef2645cb" d="M560.14,213.44c2.46.51,3.55-1.41,4.94-2.78s2.54-3.32,5-2.23c-2.08,3.19-4.37,6.19-7.92,7.86-.84.4-2,1.05-2.83.1C558.41,215.25,559.21,214.26,560.14,213.44Z" transform="translate(-21.08 -14.33)"/><path class="b1535753-de90-46c5-bf4e-bcc7ef2645cb" d="M563.86,195.94c-1.47,1.32-3.25,1.13-5,1.14s-3.92-.41-5.06,1.75c-2.45-.78-2.84-2.06-.18-2.75C556.92,195.22,560.42,194.25,563.86,195.94Z" transform="translate(-21.08 -14.33)"/></g><g id="a232d118-1bac-4adb-a380-16c65142f3ba" data-name="E3"><path class="ad8fa5e0-7581-4b4a-84ca-5e6e58e023c9" d="M568,248c-3.27.22-5.6-2.32-8.59-2.92-2.61-.76-3.49,1.32-4.7,2.86s-2,3.57-4.54,3.39c.75-2.25.38-4.65.85-6.88.54-2.5-.37-3.46-2.57-4.14s-4.32-1.76-6.48-2.66c.86-2.28,3-2.13,4.8-2.38s3.56-.28,4.84-1.78q.68-4.26,1.34-8.52a2.44,2.44,0,0,1,2.1,1.45c2.61,5.75,6.78,7.12,12.44,4.67.13-.06.42.28.7.47-.1,3.26-4.9,4-4.26,7.63C564.09,242.69,567.76,244.56,568,248Z" transform="translate(-21.08 -14.33)"/><path class="b1535753-de90-46c5-bf4e-bcc7ef2645cb" d="M563.88,239.23c-.64-3.68,4.16-4.37,4.26-7.63-.28-.19-.57-.53-.7-.47-5.66,2.45-9.83,1.08-12.44-4.67a2.44,2.44,0,0,0-2.1-1.45c-1-1.44-1.74-3.16.09-4.22,2-1.17,2.78.93,3.62,2.21.72,1.11,1.21,2.37,1.84,3.54,1.38,2.55,3.45,3.54,6.29,2.74.71-.21,1.41-.46,2.13-.63,2.09-.51,4.77-2.05,6.11.18s-1.47,3.8-2.83,5.37c-1.66,1.91-3.64,3.55-3,6.48C565.83,240.7,566,237.36,563.88,239.23Z" transform="translate(-21.08 -14.33)"/><path class="b381dacc-12a8-4eed-96ce-f34bf7a4071b" d="M563.88,239.23c2.13-1.87,2,1.47,3.26,1.45,1.38,2,3.11,3.91,3.8,6.36.32,1.16.46,2.61-.81,3.07-1.58.58-1.74-1.05-2.18-2.07C567.76,244.56,564.09,242.69,563.88,239.23Z" transform="translate(-21.08 -14.33)"/><path class="b1535753-de90-46c5-bf4e-bcc7ef2645cb" d="M550.12,251.37c2.49.18,3.33-1.86,4.54-3.39s2.09-3.62,4.7-2.86c-1.65,3.43-3.54,6.7-6.85,8.81-.78.5-1.89,1.3-2.79.47C548.63,253.39,549.3,252.29,550.12,251.37Z" transform="translate(-21.08 -14.33)"/><path class="b1535753-de90-46c5-bf4e-bcc7ef2645cb" d="M551.56,233.53c-1.28,1.5-3.07,1.54-4.84,1.78s-3.94.1-4.8,2.38c-2.52-.46-3.07-1.68-.53-2.7C544.59,233.7,547.93,232.3,551.56,233.53Z" transform="translate(-21.08 -14.33)"/></g><g id="a1780104-55e3-49b2-b812-f570e3611cdf" data-name="E2"><path class="ad8fa5e0-7581-4b4a-84ca-5e6e58e023c9" d="M558.16,289.72c-.9-3.15,1.09-6,1.05-9,.2-2.71-2-3.13-3.77-4s-3.92-1.25-4.26-3.73c2.35.27,4.62-.59,6.9-.6,2.56,0,3.3-1.08,3.52-3.38s.81-4.59,1.25-6.89c2.41.36,2.7,2.46,3.32,4.2s1,3.42,2.75,4.36l8.61-.46a2.4,2.4,0,0,1-1,2.35c-5.07,3.75-5.54,8.12-2,13.14.08.11-.19.47-.32.78-3.21.58-4.89-4-8.35-2.57C562.57,284.83,561.51,288.81,558.16,289.72Z" transform="translate(-21.08 -14.33)"/><path class="b1535753-de90-46c5-bf4e-bcc7ef2645cb" d="M565.92,283.9c3.46-1.4,5.14,3.15,8.35,2.57.13-.31.4-.67.32-.78-3.58-5-3.11-9.39,2-13.14a2.4,2.4,0,0,0,1-2.35c1.2-1.32,2.73-2.36,4.15-.79,1.57,1.73-.32,2.91-1.41,4-.93.93-2.06,1.68-3.07,2.54-2.21,1.87-2.75,4.1-1.37,6.71.35.66.74,1.29,1.06,2,.93,1.94,3,4.24,1.1,6s-4-.64-5.85-1.65c-2.21-1.22-4.23-2.82-7-1.59C564.88,286.11,568.19,285.6,565.92,283.9Z" transform="translate(-21.08 -14.33)"/><path class="b381dacc-12a8-4eed-96ce-f34bf7a4071b" d="M565.92,283.9c2.27,1.7-1,2.21-.74,3.49-1.72,1.78-3.17,3.85-5.43,5-1.07.56-2.45,1-3.17-.15-.9-1.42.67-1.92,1.58-2.56C561.51,288.81,562.57,284.83,565.92,283.9Z" transform="translate(-21.08 -14.33)"/><path class="b1535753-de90-46c5-bf4e-bcc7ef2645cb" d="M551.18,273c.34,2.48,2.51,2.87,4.26,3.73s4,1.29,3.77,4c-3.7-.89-7.29-2.06-10-4.85-.65-.66-1.67-1.59-1-2.64C548.89,271.93,550.1,272.36,551.18,273Z" transform="translate(-21.08 -14.33)"/><path class="b1535753-de90-46c5-bf4e-bcc7ef2645cb" d="M568.92,270.66c-1.73-.94-2.14-2.68-2.75-4.36s-.91-3.84-3.32-4.2c-.08-2.56,1-3.36,2.53-1.08C567.3,263.88,569.37,266.86,568.92,270.66Z" transform="translate(-21.08 -14.33)"/></g><g id="a94ed661-25a6-4669-be3e-658f04438db8" data-name="E1"><path class="ad8fa5e0-7581-4b4a-84ca-5e6e58e023c9" d="M604.09,297.79c-1,3.13-4.21,4.37-5.86,6.94-1.66,2.15-.05,3.73.94,5.42s2.59,3.21,1.5,5.46c-1.81-1.52-4.18-2.05-6.09-3.31-2.13-1.41-3.35-.92-4.79.88s-3.22,3.39-4.84,5.06c-1.82-1.63-.9-3.53-.47-5.33s1-3.42.11-5.16l-7.43-4.36a2.42,2.42,0,0,1,2.11-1.42c6.31-.33,9.1-3.71,8.89-9.88,0-.14.41-.29.69-.47,3,1.28,1.89,6,5.55,6.74C597.7,299.44,600.78,296.7,604.09,297.79Z" transform="translate(-21.08 -14.33)"/><path class="b1535753-de90-46c5-bf4e-bcc7ef2645cb" d="M594.4,298.36c-3.66-.74-2.55-5.46-5.55-6.74-.28.18-.7.33-.69.47.21,6.17-2.58,9.55-8.89,9.88a2.42,2.42,0,0,0-2.11,1.42c-1.73.44-3.58.47-3.9-1.62-.35-2.32,1.87-2.25,3.38-2.56,1.3-.27,2.65-.27,4-.43,2.87-.34,4.55-1.91,4.84-4.85.07-.74.09-1.48.19-2.21.29-2.14-.16-5.2,2.4-5.63s3,2.76,4,4.6c1.17,2.24,2,4.69,4.93,5.17C596.48,297.09,593.44,295.7,594.4,298.36Z" transform="translate(-21.08 -14.33)"/><path class="b381dacc-12a8-4eed-96ce-f34bf7a4071b" d="M594.4,298.36c-1-2.66,2.08-1.27,2.54-2.5,2.42-.53,4.77-1.46,7.31-1.21,1.2.12,2.59.52,2.56,1.87,0,1.68-1.61,1.24-2.72,1.27C600.78,296.7,597.7,299.44,594.4,298.36Z" transform="translate(-21.08 -14.33)"/><path class="b1535753-de90-46c5-bf4e-bcc7ef2645cb" d="M600.67,315.61c1.09-2.25-.51-3.78-1.5-5.46s-2.6-3.27-.94-5.42c2.59,2.79,4.95,5.74,5.7,9.59.18.91.52,2.24-.59,2.77C602,317.74,601.23,316.71,600.67,315.61Z" transform="translate(-21.08 -14.33)"/><path class="b1535753-de90-46c5-bf4e-bcc7ef2645cb" d="M584.59,307.75c.94,1.74.31,3.43-.11,5.16s-1.35,3.7.47,5.33c-1.35,2.19-2.69,2.26-2.71-.49C582.21,314.31,582.12,310.68,584.59,307.75Z" transform="translate(-21.08 -14.33)"/></g></g><g id="bb7a3953-b204-4858-9a25-1cc3311066ad" data-name="O"><path id="a9b45af8-4145-4246-b279-e6620f87f367" data-name="O" class="a0f8ba75-9f2f-4533-ba9b-f60450c81f8c" d="M634.39,414.6c0-17.5.07-35-.07-52.48,0-3,.78-4.09,3.81-4.39,18.45-1.82,36.13-6.48,52.37-15.6C726.8,321.73,745,290.3,746.58,249c1-27.52-5.5-52.93-22.73-74.88-19.27-24.55-45.4-37.32-75.55-42.8a68.88,68.88,0,0,0-10.56-1.43c-3.37-.08-3.27-2-3.27-4.33,0-35.29,0-70.57-.16-105.85,0-3.78,1.44-4.37,4.68-4.23,32.32,1.4,63.3,8.37,92.61,22.21,17.61,8.32,34,18.48,48.55,31.59,57.18,51.59,85.75,115.31,79.25,192.65-6.79,80.83-47.8,140.74-117.2,181.28-31.81,18.58-67.22,25.73-103.77,27.73-3.26.17-4-.78-4-3.85.11-17.49,0-35,0-52.47Z" transform="translate(-21.08 -14.33)"/></g><g id="b61978e5-6cf0-4a08-84af-0d479d8805a1" data-name="E"><path id="abd7ec6f-3d96-4002-bea0-22bfeca3d091" data-name="Bas" class="a0f8ba75-9f2f-4533-ba9b-f60450c81f8c" d="M442.71,355.46q79.62,0,159.24-.1c4,0,4.84.95,4.82,4.86q-.25,52.93,0,105.86c0,3.56-.71,4.73-4.53,4.73q-159.92-.12-319.83.12c-4.14,0-4.77-1.3-4.76-5q.14-52.94-.1-105.87c0-4.07,1.27-4.86,5.05-4.86q80.07.18,160.13.08Z" transform="translate(-21.08 -14.33)"/><path id="a713101a-f196-4637-b544-f6d85885b19f" data-name="Milieu" class="a0f8ba75-9f2f-4533-ba9b-f60450c81f8c" d="M531.7,301H505.34q-111.42,0-222.82.09c-3.73,0-5-.64-4.95-4.72q.21-53.37-.11-106.74c0-3.53,1-4.43,4.45-4.43q123.2.15,246.39.07c4.73,0,5,.61,2.51,5.69-14.6,30.4-15.8,61.78-6.71,93.86a54,54,0,0,0,3.36,8.21C528.64,295.57,530.06,298,531.7,301Z" transform="translate(-21.08 -14.33)"/><path id="aa9aa9c6-88c2-46d8-b31d-3e7905b63b3b" data-name="Haut" class="a0f8ba75-9f2f-4533-ba9b-f60450c81f8c" d="M442.27,130q-79.83,0-159.68.08c-3.71,0-5-.63-5-4.74q.24-53.16,0-106.31c0-3.34.72-4.62,4.42-4.61q160.57.21,321.14.14c3.09,0,3.61,1,3.6,3.79q-.12,53.82,0,107.64c0,3.63-1.32,4-4.36,4q-80.07-.12-160.13-.06Z" transform="translate(-21.08 -14.33)"/></g><g id="f142746a-8ed4-460e-a006-7cdc54813332" data-name="C"><path id="f465d14a-b564-4c6d-b992-34dab2fb7496" data-name="C" class="ee457075-27dc-41cd-b1b7-254597e16649" d="M250.91,71.9c0,17.79-.08,35.59.07,53.38,0,3-.64,4-3.7,4.33-19.93,2.11-39,7.21-56.51,17.26-35.17,20.22-53.06,51-54.8,91.26-1.4,32.63,8.07,61.36,31.2,85.09,19.11,19.6,42.85,29.62,69.39,33.95,3.8.62,7.63,1.14,11.46,1.39,2.37.15,2.8,1.14,2.8,3.29-.06,35-.11,70,.06,105,0,3.55-1.7,3.32-4,3.26-59.64-1.48-111.79-21.44-155.19-62.95C56,373,32.24,332,24.61,283.08c-11.9-76.24,7.13-143.76,61.2-200,40.32-42,90.07-63.85,148-67.62,4.58-.3,9.18-.33,13.75-.74,2.78-.26,3.46.64,3.44,3.39C250.84,36,250.91,54,250.91,71.9Z" transform="translate(-21.08 -14.33)"/></g></svg>